<?xml version="1.0" encoding="UTF-8"?>
<svg version="1.1" viewBox="0 0 400 400" xmlns="http://www.w3.org/2000/svg">
<g fill="#fff">
<rect x="10" y="80" width="170" height="170"/>
<rect x="213.33" y="149.25" width="170" height="170"/>
</g>
<g transform="translate(0 -652.36)" fill="#00c7d3" fill-rule="evenodd">
<path transform="translate(0 652.36)" d="m5 70v190h190v-190h-190zm40 25c8.2843 0 15 6.7157 15 15s-6.7157 15-15 15-15-6.7157-15-15 6.7157-15 15-15zm110 0c8.2843 0 15 6.7157 15 15s-6.7157 15-15 15-15-6.7157-15-15 6.7157-15 15-15zm-110 55c8.2843 0 15 6.7157 15 15s-6.7157 15-15 15-15-6.7157-15-15 6.7157-15 15-15zm110 0c8.2843 0 15 6.7157 15 15s-6.7157 15-15 15-15-6.7157-15-15 6.7157-15 15-15zm-55 40c8.2843 0 15 6.7157 15 15s-6.7157 15-15 15c-8.2843 0-15-6.7157-15-15s6.7157-15 15-15zm-55 15c8.2843 0 15 6.7157 15 15s-6.7157 15-15 15-15-6.7157-15-15 6.7157-15 15-15zm110 0c8.2843 0 15 6.7157 15 15s-6.7157 15-15 15-15-6.7157-15-15 6.7157-15 15-15z"/>
<path d="m205 792.36v190h190v-190zm40 25c8.2843 0 15 6.7157 15 15s-6.7157 15-15 15-15-6.7157-15-15 6.7157-15 15-15zm110 0c8.2843 0 15 6.7157 15 15s-6.7157 15-15 15-15-6.7157-15-15 6.7157-15 15-15zm-110 55c8.2843 0 15 6.7157 15 15s-6.7157 15-15 15-15-6.7157-15-15 6.7157-15 15-15zm110 0c8.2843 0 15 6.7157 15 15s-6.7157 15-15 15-15-6.7157-15-15 6.7157-15 15-15zm-55 0c8.2843 0 15 6.7157 15 15s-6.7157 15-15 15-15-6.7157-15-15 6.7157-15 15-15zm-55 55c8.2843 0 15 6.7157 15 15s-6.7157 15-15 15-15-6.7157-15-15 6.7157-15 15-15zm110 0c8.2843 0 15 6.7157 15 15s-6.7157 15-15 15-15-6.7157-15-15 6.7157-15 15-15z"/>
</g>
</svg>
